# xmcd
# 
# Track frame offsets:
#     183
#     18683
#     37283
# 
# Disc length: 742
# 
# Revision: 1
# Processed by: cddbd v1.5.2PL0 Copyright (c) Steve Scherf et al.
# Submitted via: fre:ac v1.0.31
# 
DISCID=2502e403
DTITLE=The Munich Philharmonic Orchestra Feat. Nazareth - Love Hurts
DYEAR=1994
DGENRE=BSO
TTITLE0=Love Hurts [Rock Orchestra Version]
TTITLE1=Love Hurts [Movie Version Instrumental]
TTITLE2=Love Hurts [Movie Version]
EXTD=
EXTT0=
EXTT1=
EXTT2=
PLAYORDER=
